PathFileType	4	(X/Y/Z)	C:\Users\Biomechanik\SynologyDrive\AlexP\Athlete_03\Athlete_3_25_03_31\Squat_bw_01\marker_experimental.trc
DataRate	CameraRate	NumFrames	NumMarkers	Units	OrigDataRate	OrigDataStartFrame	OrigNumFrames
200.000000	200.000000	4	55	mm	200.000000	177	708
Frame#	Time	BL			BR			GLAB			RFHD			LFHD			C7			T6			SPINMOL			SPINM2			SPINM3			T12			BELTOL			BELT2			BELT3			SACROL			SACR2			SACR3			LTHOL			LTH2			LTH3			LSHAOL			LSHA2			LSHA3			LHEE			LTOE			LM5			RTHOL			RTH2			RTH3			RSHAOL			RSHA2			RSHA3			RHEE			RTOE			RM5			STRN			XIPH			LACR			LUAOL			LUA2			LUA3			LLAOL			LLA2			LLA3			LWRR			LWRU			RACR			RUAOL			RUA2			RUA3			RLAOL			RLA2			RLA3			RWRR			RWRU			
		X1	Y1	Z1	X2	Y2	Z2	X3	Y3	Z3	X4	Y4	Z4	X5	Y5	Z5	X6	Y6	Z6	X7	Y7	Z7	X8	Y8	Z8	X9	Y9	Z9	X10	Y10	Z10	X11	Y11	Z11	X12	Y12	Z12	X13	Y13	Z13	X14	Y14	Z14	X15	Y15	Z15	X16	Y16	Z16	X17	Y17	Z17	X18	Y18	Z18	X19	Y19	Z19	X20	Y20	Z20	X21	Y21	Z21	X22	Y22	Z22	X23	Y23	Z23	X24	Y24	Z24	X25	Y25	Z25	X26	Y26	Z26	X27	Y27	Z27	X28	Y28	Z28	X29	Y29	Z29	X30	Y30	Z30	X31	Y31	Z31	X32	Y32	Z32	X33	Y33	Z33	X34	Y34	Z34	X35	Y35	Z35	X36	Y36	Z36	X37	Y37	Z37	X38	Y38	Z38	X39	Y39	Z39	X40	Y40	Z40	X41	Y41	Z41	X42	Y42	Z42	X43	Y43	Z43	X44	Y44	Z44	X45	Y45	Z45	X46	Y46	Z46	X47	Y47	Z47	X48	Y48	Z48	X49	Y49	Z49	X50	Y50	Z50	X51	Y51	Z51	X52	Y52	Z52	X53	Y53	Z53	X54	Y54	Z54	X55	Y55	Z55	

178	0.885	960.6978759765625	36.22610855102551	-1933.540893554688	1063.186157226562	32.8952522277832	86.64408874511719	442.2870483398438	1537.252685546875	-1207.348754882812	397.2801208496094	1568.988159179688	-1143.755249023438	401.617919921875	1566.96044921875	-1279.014526367188	190.633544921875	1417.730590820312	-1213.905029296875	101.1384124755859	1263.094360351562	-1219.463256835938	89.66496276855469	1227.459838867188	-1240.18359375	81.65384674072266	1220.963745117188	-1190.950805664062	77.30112457275391	1164.495971679688	-1224.69970703125	72.60552215576172	1098.494384765625	-1222.84033203125	47.15913009643555	1073.33447265625	-1239.230590820312	47.50056457519531	1071.084594726562	-1188.774536132812	28.99072647094727	1013.435852050781	-1217.493408203125	17.06243515014648	941.3729248046876	-1241.486328125	18.50541496276855	938.7603759765626	-1190.020141601562	1.516439318656921	881.0834350585939	-1218.057739257812	121.0083618164062	662.5178222656251	-1446.935546875	97.89710235595703	591.6255493164064	-1420.214477539062	137.2785186767578	603.4240112304689	-1449.231201171875	149.3357391357422	334.0603332519532	-1534.17138671875	105.4099578857422	268.7567443847657	-1521.204833984375	151.948486328125	272.6072692871095	-1541.006958007812	101.4269866943359	67.88414001464852	-1485.98974609375	312.0771484375	50.83602142333994	-1541.23681640625	242.7766876220703	27.92583084106455	-1626.975708007812	100.6158218383789	671.5112915039064	-990.3650512695312	159.1472320556641	637.5720214843751	-947.5996704101562	124.8803329467773	615.9685058593751	-976.26513671875	118.8991317749023	350.1995239257813	-904.0550537109375	146.5835571289062	281.6358947753907	-877.5079956054688	107.7402038574219	288.8905029296876	-907.6106567382812	89.26104736328125	63.18555068969732	-963.1991577148438	286.2535705566406	47.81414794921881	-879.669677734375	202.5303039550781	39.13970565795903	-803.398193359375	345.1702575683594	1295.332885742188	-1216.94970703125	337.3694458007812	1148.670288085938	-1215.280883789062	246.0894165039062	1388.344848632812	-1379.423461914062	166.0858612060547	1274.525146484375	-1486.450317382812	125.5237350463867	1223.815307617188	-1499.869995117188	168.3970794677734	1224.255737304688	-1527.998657226562	193.0215759277344	1157.190795898438	-1613.046020507812	271.3994140625	1148.789916992188	-1619.571899414062	244.0090026855469	1191.342163085938	-1618.835083007812	316.6815795898438	1266.134521484375	-1624.80126953125	316.1244201660156	1274.913940429688	-1547.462646484375	246.3820343017578	1382.53955078125	-1060.020141601562	173.7398529052734	1272.344604492188	-953.3813476562499	171.0315856933594	1224.848999023438	-906.9787597656249	136.4221343994141	1218.465942382812	-945.7149658203124	221.1364440917969	1171.850708007812	-806.6354980468749	226.3861389160156	1251.493774414062	-806.0546874999999	263.5422668457031	1217.731079101562	-801.8105468749999	304.2750244140625	1302.969360351562	-805.9902343749999	315.3253479003906	1307.141845703125	-883.3356933593749	
179	0.89	960.6978759765625	36.22647476196301	-1933.54052734375	1063.186279296875	32.89551925659179	86.64430236816406	443.6561584472656	1535.473510742188	-1207.364868164062	398.6530151367188	1567.24365234375	-1143.787353515625	403.0098266601562	1565.166259765625	-1279.048706054688	191.7679595947266	1416.469360351562	-1213.912963867188	101.5805206298828	1262.3173828125	-1219.480834960938	89.926513671875	1226.753662109375	-1240.205322265625	81.88966369628906	1220.2890625	-1190.978149414062	77.26618194580078	1163.852661132812	-1224.72265625	72.22608184814453	1097.836791992188	-1222.86328125	46.58565521240234	1072.765625	-1239.266479492188	46.92100524902344	1070.52294921875	-1188.827392578125	28.162109375	1012.943359375	-1217.527465820312	16.05303573608398	940.6895751953126	-1241.480834960938	17.49517440795898	938.0957641601564	-1190.01513671875	0.3644292652606964	880.4461059570314	-1218.025512695312	121.0582809448242	661.7454833984376	-1447.832885742188	98.36018371582031	590.5771484375001	-1421.524291992188	137.7795715332031	602.7919311523439	-1450.351196289062	150.3910980224609	334.0194091796876	-1535.250732421875	106.230110168457	268.9210815429689	-1522.027587890625	152.7877502441406	272.5181274414064	-1541.842895507812	101.4297485351562	67.89646148681649	-1485.993774414062	312.0745544433594	50.84203338623056	-1541.246704101562	242.7760772705078	27.92616081237803	-1626.976196289062	100.7379760742188	670.7082519531251	-989.3013916015625	159.6292114257812	637.3341064453126	-946.5769653320312	125.4196548461914	615.3699340820314	-975.0389404296875	120.0546493530273	350.1788330078126	-902.8554077148438	147.5269317626953	281.4241333007813	-876.6322021484375	108.6479034423828	288.9275512695313	-906.6054077148438	89.24470520019531	63.1848983764649	-963.1786499023438	286.2569274902344	47.82482528686529	-879.6719360351562	202.52978515625	39.13846969604497	-803.39599609375	345.7971801757812	1293.439453125	-1216.952026367188	337.4101867675781	1146.741333007812	-1215.284057617188	247.1687927246094	1386.880493164062	-1379.391357421875	166.7150115966797	1273.528564453125	-1486.505615234375	125.9373245239258	1223.010375976562	-1499.973266601562	168.7989044189453	1223.305786132812	-1528.120971679688	193.1911926269531	1156.282958984375	-1613.237548828125	271.5337524414062	1147.5888671875	-1619.736206054688	244.3085479736328	1190.241943359375	-1618.938598632812	317.2700500488281	1264.760131835938	-1624.75048828125	316.6921691894531	1273.423095703125	-1547.393310546875	247.3887329101562	1381.116455078125	-1060.082763671875	174.3759613037109	1271.305786132812	-953.3400878906249	171.4801940917969	1223.917358398438	-906.8433837890624	136.8647003173828	1217.584106445312	-945.5941162109374	221.4309539794922	1170.947509765625	-806.4490356445311	226.9321441650391	1250.578125	-806.0165405273436	263.9790649414062	1216.709838867188	-801.7117309570311	304.9909973144531	1301.798706054688	-806.0776977539061	315.9611511230469	1305.828491210938	-883.4489746093749	
180	0.895	960.6979370117188	36.22681427001965	-1933.540405273438	1063.186401367188	32.89575576782226	86.64455413818359	445.0395812988281	1533.6025390625	-1207.38232421875	400.0450134277344	1565.412109375	-1143.821411132812	404.4176025390625	1563.282470703125	-1279.083374023438	192.9083557128906	1415.136840820312	-1213.91748046875	102.0181579589844	1261.479248046875	-1219.495727539062	90.17949676513672	1225.98779296875	-1240.224853515625	82.12240600585938	1219.556762695312	-1191.000610351562	77.22312164306641	1163.151245117188	-1224.743530273438	71.83312225341797	1097.119140625	-1222.886474609375	46.00329971313477	1072.126953125	-1239.30322265625	46.33219528198242	1069.891357421875	-1188.88623046875	27.32667922973633	1012.380004882813	-1217.56298828125	15.03640842437744	939.9334106445314	-1241.4736328125	16.48025894165039	937.3596191406251	-1190.009033203125	-0.7884944081306458	879.7353515625001	-1217.989501953125	121.1226425170898	660.9507446289064	-1448.764404296875	98.84551239013672	589.5070190429689	-1422.87548828125	138.2967224121094	602.1404418945314	-1451.509643554688	151.4584808349609	333.9650878906251	-1536.358520507812	107.0571212768555	269.0767822265626	-1522.884765625	153.6393280029297	272.4138793945314	-1542.701049804688	101.4308929443359	67.9080352783204	-1486.00146484375	312.0713500976562	50.84918975830087	-1541.259033203125	242.7744293212891	27.92356872558604	-1626.979125976562	100.8479614257812	669.8756103515626	-988.2256469726562	160.0806579589844	637.0679321289064	-945.5267944335938	125.9436187744141	614.7471313476564	-973.8007202148438	121.2045440673828	350.1466369628907	-901.6505126953125	148.4588012695312	281.2028198242188	-875.749755859375	109.5479202270508	288.9554443359376	-905.5940551757812	89.22735595703125	63.18365859985357	-963.1563110351562	286.2578125	47.83741378784185	-879.6702880859375	202.5266723632812	39.13430786132817	-803.3901977539062	346.4222717285156	1291.45947265625	-1216.952392578125	337.4392395019531	1144.730224609375	-1215.284912109375	248.2553558349609	1385.340209960938	-1379.356079101562	167.3500518798828	1272.467651367188	-1486.5625	126.3542327880859	1222.1474609375	-1500.08447265625	169.2059326171875	1222.295532226562	-1528.2490234375	193.3679351806641	1155.323608398438	-1613.43896484375	271.6735229492188	1146.333374023438	-1619.910034179688	244.6152954101562	1189.08740234375	-1619.04638671875	317.8681640625	1263.327758789062	-1624.69482421875	317.2661437988281	1271.865600585938	-1547.317749023438	248.4026336669922	1379.619018554688	-1060.145141601562	175.0210876464844	1270.20458984375	-953.2928466796874	171.936767578125	1222.929565429688	-906.6967163085936	137.3141021728516	1216.64306640625	-945.4603271484374	221.7370147705078	1169.998779296875	-806.2478027343749	227.4904174804688	1249.614990234375	-805.9732666015624	264.427978515625	1215.641967773438	-801.6054077148436	305.7210083007812	1300.578369140625	-806.1685180664061	316.6034240722656	1304.45849609375	-883.5668945312499	
181	0.9	960.6979370117188	36.22704315185559	-1933.540283203125	1063.1865234375	32.89592361450195	86.64487457275391	446.436767578125	1531.639404296875	-1207.400756835938	401.4556274414062	1563.493530273438	-1143.857177734375	405.8411560058594	1561.309814453125	-1279.118286132812	194.0534057617188	1413.733764648438	-1213.918823242188	102.4509582519531	1260.580444335938	-1219.50830078125	90.42372894287109	1225.16259765625	-1240.242797851562	82.35174560546875	1218.767333984375	-1191.018798828125	77.17166137695312	1162.391723632812	-1224.763061523438	71.42680358886719	1096.342163085938	-1222.910522460938	45.41364288330078	1071.41845703125	-1239.341186523438	45.7348518371582	1069.189331054688	-1188.949340820312	26.48582077026367	1011.745483398438	-1217.599731445312	14.01320362091064	939.1044311523439	-1241.46533203125	15.46173858642578	936.5517578125001	-1190.002319335938	-1.94063401222229	878.9508056640626	-1217.9501953125	121.1986465454102	660.1339111328126	-1449.725463867188	99.3509521484375	588.4166259765626	-1424.2587890625	138.825927734375	601.4699707031251	-1452.700927734375	152.5346069335938	333.8968811035157	-1537.490234375	107.8883438110352	269.2225341796876	-1523.773559570312	154.5002899169922	272.2947387695314	-1543.578247070312	101.4301986694336	67.91871643066415	-1486.012939453125	312.0672607421875	50.8571662902833	-1541.27392578125	242.7716979980469	27.91792678833018	-1626.984619140625	100.9415817260742	669.0094604492189	-987.1423950195312	160.4969635009766	636.7710571289064	-944.4521484375	126.4496688842773	614.0970458984376	-972.5550537109375	122.3493118286133	350.1038818359376	-900.443115234375	149.3783416748047	280.9725646972657	-874.8606567382812	110.4407653808594	288.9752502441407	-904.5791015625	89.20929718017578	63.18207168579107	-963.1325073242188	286.2563781738281	47.85160446166998	-879.6650390625	202.5211639404297	39.12754440307622	-803.381103515625	347.0446472167969	1289.394165039062	-1216.951293945312	337.455322265625	1142.641479492188	-1215.282836914062	249.3477935791016	1383.724609375	-1379.31787109375	167.9906311035156	1271.341796875	-1486.62109375	126.774169921875	1221.226196289062	-1500.204345703125	169.6183929443359	1221.22412109375	-1528.3828125	193.5526428222656	1154.310546875	-1613.649291992188	271.8196411132812	1145.021484375	-1620.092041015625	244.9300384521484	1187.876708984375	-1619.158081054688	318.4766845703125	1261.83544921875	-1624.634521484375	317.8467407226562	1270.240356445312	-1547.236083984375	249.4226837158203	1378.047729492188	-1060.207153320312	175.6747131347656	1269.041137695312	-953.2398681640624	172.4007415771484	1221.884521484375	-906.5396118164061	137.7696685791016	1215.642456054688	-945.3144531249999	222.0544586181641	1169.002685546875	-806.0330810546874	228.0604705810547	1248.602294921875	-805.9254150390624	264.8889770507812	1214.525390625	-801.4932250976561	306.4646606445312	1299.306274414062	-806.2628173828124	317.2520141601562	1303.03076171875	-883.6895141601561	
